<?xml version="1.0" encoding="UTF-8" standalone="no"?>
<!DOCTYPE svg PUBLIC "-//W3C//DTD SVG 1.1//EN"
 "http://www.w3.org/Graphics/SVG/1.1/DTD/svg11.dtd">
<!-- Generated by graphviz version 2.40.1 (20161225.0304)
 -->
<!-- Title: MODE(transactions.WEEKDAY(transaction_time)) Pages: 1 -->
<svg width="1221pt" height="164pt"
 viewBox="0.00 0.00 1221.00 164.00" xmlns="http://www.w3.org/2000/svg" xmlns:xlink="http://www.w3.org/1999/xlink">
<g id="graph0" class="graph" transform="scale(1 1) rotate(0) translate(4 160)">
<title>MODE(transactions.WEEKDAY(transaction_time))</title>
<polygon fill="#ffffff" stroke="transparent" points="-4,4 -4,-160 1217,-160 1217,4 -4,4"/>
<!-- sessions -->
<g id="node1" class="node">
<title>sessions</title>
<polygon fill="#a9a9a9" stroke="transparent" points="896.5,-79 896.5,-116 1205.5,-116 1205.5,-79 896.5,-79"/>
<polygon fill="none" stroke="#000000" points="896.5,-79 896.5,-116 1205.5,-116 1205.5,-79 896.5,-79"/>
<text text-anchor="start" x="993" y="-94.8" font-family="Times,serif" font-weight="bold" font-size="14.00" fill="#000000">★ sessions (target)</text>
<polygon fill="#d9ead3" stroke="transparent" points="896.5,-42 896.5,-79 1205.5,-79 1205.5,-42 896.5,-42"/>
<polygon fill="none" stroke="#000000" points="896.5,-42 896.5,-79 1205.5,-79 1205.5,-42 896.5,-42"/>
<text text-anchor="start" x="907.5" y="-56.8" font-family="Times,serif" font-size="14.00" fill="#000000">MODE(transactions.WEEKDAY(transaction_time))</text>
</g>
<!-- transactions -->
<g id="node2" class="node">
<title>transactions</title>
<polygon fill="#a9a9a9" stroke="transparent" points="266.5,-115 266.5,-152 457.5,-152 457.5,-115 266.5,-115"/>
<polygon fill="none" stroke="#000000" points="266.5,-115 266.5,-152 457.5,-152 457.5,-115 266.5,-115"/>
<text text-anchor="start" x="326.5" y="-130.8" font-family="Times,serif" font-weight="bold" font-size="14.00" fill="#000000">transactions</text>
<polygon fill="none" stroke="#000000" points="266.5,-78 266.5,-115 457.5,-115 457.5,-78 266.5,-78"/>
<text text-anchor="start" x="277.5" y="-92.8" font-family="Times,serif" font-size="14.00" fill="#000000">session_id</text>
<polygon fill="none" stroke="#000000" points="266.5,-41 266.5,-78 457.5,-78 457.5,-41 266.5,-41"/>
<text text-anchor="start" x="277.5" y="-55.8" font-family="Times,serif" font-size="14.00" fill="#000000">transaction_time</text>
<polygon fill="none" stroke="#000000" points="266.5,-4 266.5,-41 457.5,-41 457.5,-4 266.5,-4"/>
<text text-anchor="start" x="277.5" y="-18.8" font-family="Times,serif" font-size="14.00" fill="#000000">WEEKDAY(transaction_time)</text>
</g>
<!-- 1_WEEKDAY(transaction_time)_weekday -->
<g id="node4" class="node">
<title>1_WEEKDAY(transaction_time)_weekday</title>
<polygon fill="none" stroke="#000000" points="111,-75 0,-41 111,-7 222,-41 111,-75"/>
<text text-anchor="start" x="63.5" y="-45.4" font-family="Times,serif" font-weight="bold" font-size="12.00" fill="#000000">Step 1:</text>
<text text-anchor="start" x="99.5" y="-45.4" font-family="Times,serif" font-size="12.00" fill="#000000"> &#160;&#160;Transform</text>
<text text-anchor="start" x="76" y="-31.8" font-family="Times,serif" font-size="14.00" fill="#000000">WEEKDAY</text>
</g>
<!-- transactions&#45;&gt;1_WEEKDAY(transaction_time)_weekday -->
<g id="edge4" class="edge">
<title>transactions:transaction_time&#45;&gt;1_WEEKDAY(transaction_time)_weekday</title>
<path fill="none" stroke="#000000" d="M266.5,-59C242.7203,-59 217.03,-56.8971 193.5131,-54.1289"/>
<polygon fill="#000000" stroke="#000000" points="193.9322,-50.6542 183.5795,-52.906 193.0769,-57.6017 193.9322,-50.6542"/>
</g>
<!-- MODE(transactions.WEEKDAY(transaction_time))_groupby_transactions&#45;&#45;session_id -->
<g id="node5" class="node">
<title>MODE(transactions.WEEKDAY(transaction_time))_groupby_transactions&#45;&#45;session_id</title>
<polygon fill="none" stroke="#000000" points="574,-79 501,-79 501,-41 574,-41 574,-79"/>
<text text-anchor="middle" x="537.5" y="-63.8" font-family="Times,serif" font-size="14.00" fill="#000000">group by</text>
<text text-anchor="middle" x="537.5" y="-48.8" font-family="Times,serif" font-size="14.00" fill="#000000">session_id</text>
</g>
<!-- transactions&#45;&gt;MODE(transactions.WEEKDAY(transaction_time))_groupby_transactions&#45;&#45;session_id -->
<g id="edge5" class="edge">
<title>transactions:WEEKDAY(transaction_time)&#45;&gt;MODE(transactions.WEEKDAY(transaction_time))_groupby_transactions&#45;&#45;session_id</title>
<path fill="none" stroke="#000000" d="M457.5,-22C473.3662,-22 489.4395,-28.1739 502.9751,-35.5445"/>
<polygon fill="#000000" stroke="#000000" points="501.5092,-38.7421 511.9067,-40.7773 505.0478,-32.7024 501.5092,-38.7421"/>
</g>
<!-- transactions&#45;&gt;MODE(transactions.WEEKDAY(transaction_time))_groupby_transactions&#45;&#45;session_id -->
<g id="edge6" class="edge">
<title>transactions:session_id&#45;&gt;MODE(transactions.WEEKDAY(transaction_time))_groupby_transactions&#45;&#45;session_id</title>
<path fill="none" stroke="#000000" stroke-dasharray="1,5" d="M457.5,-97C476.628,-97 496.1498,-88.1785 511.1204,-79.1503"/>
</g>
<!-- 0_MODE(transactions.WEEKDAY(transaction_time))_mode -->
<g id="node3" class="node">
<title>0_MODE(transactions.WEEKDAY(transaction_time))_mode</title>
<polygon fill="none" stroke="#000000" points="731,-94 610,-60 731,-26 852,-60 731,-94"/>
<text text-anchor="start" x="678.5" y="-64.4" font-family="Times,serif" font-weight="bold" font-size="12.00" fill="#000000">Step 2:</text>
<text text-anchor="start" x="714.5" y="-64.4" font-family="Times,serif" font-size="12.00" fill="#000000"> &#160;&#160;Aggregation</text>
<text text-anchor="start" x="710.5" y="-50.8" font-family="Times,serif" font-size="14.00" fill="#000000">MODE</text>
</g>
<!-- 0_MODE(transactions.WEEKDAY(transaction_time))_mode&#45;&gt;sessions -->
<g id="edge1" class="edge">
<title>0_MODE(transactions.WEEKDAY(transaction_time))_mode&#45;&gt;sessions:MODE(transactions.WEEKDAY(transaction_time))</title>
<path fill="none" stroke="#000000" d="M852.1186,-60C863.5626,-60 875.0773,-60 886.2937,-60"/>
<polygon fill="#000000" stroke="#000000" points="886.5,-63.5001 896.5,-60 886.5,-56.5001 886.5,-63.5001"/>
</g>
<!-- 1_WEEKDAY(transaction_time)_weekday&#45;&gt;transactions -->
<g id="edge3" class="edge">
<title>1_WEEKDAY(transaction_time)_weekday&#45;&gt;transactions:WEEKDAY(transaction_time)</title>
<path fill="none" stroke="#000000" d="M181.9968,-28.6453C205.236,-25.4557 231.4723,-22.7395 256.3201,-22.1284"/>
<polygon fill="#000000" stroke="#000000" points="256.545,-25.626 266.5,-22 256.4566,-18.6265 256.545,-25.626"/>
</g>
<!-- MODE(transactions.WEEKDAY(transaction_time))_groupby_transactions&#45;&#45;session_id&#45;&gt;0_MODE(transactions.WEEKDAY(transaction_time))_mode -->
<g id="edge2" class="edge">
<title>MODE(transactions.WEEKDAY(transaction_time))_groupby_transactions&#45;&#45;session_id&#45;&gt;0_MODE(transactions.WEEKDAY(transaction_time))_mode</title>
<path fill="none" stroke="#000000" d="M574.3513,-60C581.9996,-60 590.4712,-60 599.3999,-60"/>
<polygon fill="#000000" stroke="#000000" points="599.6555,-63.5001 609.6554,-60 599.6554,-56.5001 599.6555,-63.5001"/>
</g>
</g>
</svg>
